# This file uses centimeters as units for non-parametric coordinates.

mtllib 1.mtl
g default
v 9.238797 3.826829 -10.000000
v 7.071071 7.071064 -10.000000
v 3.826839 9.238793 -10.000000
v 0.000005 9.999999 -10.000000
v -3.826830 9.238797 -10.000000
v -7.071065 7.071071 -10.000000
v -9.238794 3.826838 -10.000000
v -10.000000 0.000004 -10.000000
v -9.238796 -3.826831 -10.000000
v -7.071069 -7.071066 -10.000000
v -3.826836 -9.238794 -10.000000
v -0.000001 -10.000000 -10.000000
v 3.826833 -9.238796 -10.000000
v 7.071067 -7.071068 -10.000000
v 9.238795 -3.826835 -10.000000
v 10.000000 -0.000000 -10.000000
v 9.238797 3.826829 -5.000000
v 7.071071 7.071064 -5.000000
v 3.826839 9.238793 -5.000000
v 0.000005 9.999999 -5.000000
v -3.826830 9.238797 -5.000000
v -7.071065 7.071071 -5.000000
v -9.238794 3.826838 -5.000000
v -10.000000 0.000004 -5.000000
v -9.238796 -3.826831 -5.000000
v -7.071069 -7.071066 -5.000000
v -3.826836 -9.238794 -5.000000
v -0.000001 -10.000000 -5.000000
v 3.826833 -9.238796 -5.000000
v 7.071067 -7.071068 -5.000000
v 9.238795 -3.826835 -5.000000
v 10.000000 -0.000000 -5.000000
v 9.238797 3.826829 -0.000000
v 7.071071 7.071064 -0.000000
v 3.826839 9.238793 -0.000000
v 0.000005 9.999999 -0.000000
v -3.826830 9.238797 -0.000000
v -7.071065 7.071071 -0.000000
v -9.238794 3.826838 -0.000000
v -10.000000 0.000004 -0.000000
v -9.238796 -3.826831 0.000000
v -7.071069 -7.071066 0.000000
v -3.826836 -9.238794 0.000000
v -0.000001 -10.000000 0.000000
v 3.826833 -9.238796 0.000000
v 7.071067 -7.071068 0.000000
v 9.238795 -3.826835 0.000000
v 10.000000 0.000000 0.000000
v 9.238797 3.826829 5.000000
v 7.071071 7.071064 5.000000
v 3.826839 9.238793 5.000000
v 0.000005 9.999999 5.000000
v -3.826830 9.238797 5.000000
v -7.071065 7.071071 5.000000
v -9.238794 3.826838 5.000000
v -10.000000 0.000004 5.000000
v -9.238796 -3.826831 5.000000
v -7.071069 -7.071066 5.000000
v -3.826836 -9.238794 5.000000
v -0.000001 -10.000000 5.000000
v 3.826833 -9.238796 5.000000
v 7.071067 -7.071068 5.000000
v 9.238795 -3.826835 5.000000
v 10.000000 0.000000 5.000000
v 9.238797 3.826829 10.000000
v 7.071071 7.071064 10.000000
v 3.826839 9.238793 10.000000
v 0.000005 9.999999 10.000000
v -3.826830 9.238797 10.000000
v -7.071065 7.071071 10.000000
v -9.238794 3.826838 10.000000
v -10.000000 0.000004 10.000000
v -9.238796 -3.826831 10.000000
v -7.071069 -7.071066 10.000000
v -3.826836 -9.238794 10.000000
v -0.000001 -10.000000 10.000000
v 3.826833 -9.238796 10.000000
v 7.071067 -7.071068 10.000000
v 9.238795 -3.826835 10.000000
v 10.000000 0.000000 10.000000
v 0.000000 -0.000000 -10.000000
v 0.000000 0.000000 10.000000
vt 0.644356 0.096456
vt 0.610485 0.045765
vt 0.559794 0.011894
vt 0.500000 0.000000
vt 0.440206 0.011894
vt 0.389515 0.045765
vt 0.355644 0.096456
vt 0.343750 0.156250
vt 0.355644 0.216044
vt 0.389515 0.266735
vt 0.440206 0.300606
vt 0.500000 0.312500
vt 0.559794 0.300606
vt 0.610485 0.266735
vt 0.644356 0.216044
vt 0.656250 0.156250
vt 0.375000 0.312500
vt 0.390625 0.312500
vt 0.406250 0.312500
vt 0.421875 0.312500
vt 0.437500 0.312500
vt 0.453125 0.312500
vt 0.468750 0.312500
vt 0.484375 0.312500
vt 0.500000 0.312500
vt 0.515625 0.312500
vt 0.531250 0.312500
vt 0.546875 0.312500
vt 0.562500 0.312500
vt 0.578125 0.312500
vt 0.593750 0.312500
vt 0.609375 0.312500
vt 0.625000 0.312500
vt 0.375000 0.406485
vt 0.390625 0.406485
vt 0.406250 0.406485
vt 0.421875 0.406485
vt 0.437500 0.406485
vt 0.453125 0.406485
vt 0.468750 0.406485
vt 0.484375 0.406485
vt 0.500000 0.406485
vt 0.515625 0.406485
vt 0.531250 0.406485
vt 0.546875 0.406485
vt 0.562500 0.406485
vt 0.578125 0.406485
vt 0.593750 0.406485
vt 0.609375 0.406485
vt 0.625000 0.406485
vt 0.375000 0.500470
vt 0.390625 0.500470
vt 0.406250 0.500470
vt 0.421875 0.500470
vt 0.437500 0.500470
vt 0.453125 0.500470
vt 0.468750 0.500470
vt 0.484375 0.500470
vt 0.500000 0.500470
vt 0.515625 0.500470
vt 0.531250 0.500470
vt 0.546875 0.500470
vt 0.562500 0.500470
vt 0.578125 0.500470
vt 0.593750 0.500470
vt 0.609375 0.500470
vt 0.625000 0.500470
vt 0.375000 0.594455
vt 0.390625 0.594455
vt 0.406250 0.594455
vt 0.421875 0.594455
vt 0.437500 0.594455
vt 0.453125 0.594455
vt 0.468750 0.594455
vt 0.484375 0.594455
vt 0.500000 0.594455
vt 0.515625 0.594455
vt 0.531250 0.594455
vt 0.546875 0.594455
vt 0.562500 0.594455
vt 0.578125 0.594455
vt 0.593750 0.594455
vt 0.609375 0.594455
vt 0.625000 0.594455
vt 0.375000 0.688440
vt 0.390625 0.688440
vt 0.406250 0.688440
vt 0.421875 0.688440
vt 0.437500 0.688440
vt 0.453125 0.688440
vt 0.468750 0.688440
vt 0.484375 0.688440
vt 0.500000 0.688440
vt 0.515625 0.688440
vt 0.531250 0.688440
vt 0.546875 0.688440
vt 0.562500 0.688440
vt 0.578125 0.688440
vt 0.593750 0.688440
vt 0.609375 0.688440
vt 0.625000 0.688440
vt 0.644356 0.783956
vt 0.610485 0.733265
vt 0.559794 0.699394
vt 0.500000 0.687500
vt 0.440206 0.699394
vt 0.389515 0.733265
vt 0.355644 0.783956
vt 0.343750 0.843750
vt 0.355644 0.903544
vt 0.389515 0.954235
vt 0.440206 0.988106
vt 0.500000 1.000000
vt 0.559794 0.988106
vt 0.610485 0.954235
vt 0.644356 0.903544
vt 0.656250 0.843750
vt 0.500000 0.150000
vt 0.500000 0.837500
vn 0.923880 0.382683 -0.000000
vn 0.707107 0.707106 -0.000000
vn 0.707107 0.707106 -0.000000
vn 0.923880 0.382683 -0.000000
vn 0.382684 0.923879 -0.000000
vn 0.382684 0.923879 -0.000000
vn 0.000001 1.000000 -0.000000
vn 0.000001 1.000000 -0.000000
vn -0.382683 0.923880 -0.000000
vn -0.382683 0.923880 -0.000000
vn -0.707106 0.707107 -0.000000
vn -0.707106 0.707107 -0.000000
vn -0.923879 0.382684 -0.000000
vn -0.923879 0.382684 -0.000000
vn -1.000000 0.000000 -0.000000
vn -1.000000 0.000000 -0.000000
vn -0.923880 -0.382683 0.000000
vn -0.923880 -0.382683 0.000000
vn -0.707107 -0.707107 0.000000
vn -0.707107 -0.707107 0.000000
vn -0.382684 -0.923879 0.000000
vn -0.382684 -0.923879 0.000000
vn -0.000000 -1.000000 0.000000
vn -0.000000 -1.000000 0.000000
vn 0.382683 -0.923880 0.000000
vn 0.382683 -0.923880 0.000000
vn 0.707107 -0.707107 0.000000
vn 0.707107 -0.707107 0.000000
vn 0.923880 -0.382683 0.000000
vn 0.923880 -0.382683 0.000000
vn 1.000000 -0.000000 0.000000
vn 1.000000 -0.000000 0.000000
vn 0.707107 0.707106 -0.000000
vn 0.923880 0.382683 -0.000000
vn 0.382684 0.923879 -0.000000
vn 0.000001 1.000000 -0.000000
vn -0.382683 0.923880 -0.000000
vn -0.707106 0.707107 -0.000000
vn -0.923879 0.382684 -0.000000
vn -1.000000 0.000000 -0.000000
vn -0.923880 -0.382683 0.000000
vn -0.707107 -0.707107 0.000000
vn -0.382684 -0.923879 0.000000
vn -0.000000 -1.000000 0.000000
vn 0.382683 -0.923880 0.000000
vn 0.707107 -0.707107 0.000000
vn 0.923880 -0.382683 0.000000
vn 1.000000 -0.000000 0.000000
vn 0.707107 0.707106 -0.000000
vn 0.923880 0.382683 -0.000000
vn 0.382684 0.923879 -0.000000
vn 0.000001 1.000000 -0.000000
vn -0.382683 0.923880 -0.000000
vn -0.707106 0.707107 -0.000000
vn -0.923879 0.382684 -0.000000
vn -1.000000 0.000000 -0.000000
vn -0.923880 -0.382683 0.000000
vn -0.707107 -0.707107 0.000000
vn -0.382684 -0.923879 0.000000
vn -0.000000 -1.000000 0.000000
vn 0.382683 -0.923880 0.000000
vn 0.707107 -0.707107 0.000000
vn 0.923880 -0.382683 0.000000
vn 1.000000 -0.000000 0.000000
vn 0.707107 0.707106 -0.000000
vn 0.923880 0.382683 -0.000000
vn 0.382684 0.923879 -0.000000
vn 0.000001 1.000000 -0.000000
vn -0.382683 0.923880 -0.000000
vn -0.707106 0.707107 -0.000000
vn -0.923879 0.382684 -0.000000
vn -1.000000 0.000000 -0.000000
vn -0.923880 -0.382683 0.000000
vn -0.707107 -0.707107 0.000000
vn -0.382684 -0.923879 0.000000
vn -0.000000 -1.000000 0.000000
vn 0.382683 -0.923880 0.000000
vn 0.707107 -0.707107 0.000000
vn 0.923880 -0.382683 0.000000
vn 1.000000 -0.000000 0.000000
vn 0.000000 -0.000000 -1.000000
vn 0.000000 -0.000000 -1.000000
vn 0.000000 -0.000000 -1.000000
vn 0.000000 -0.000000 -1.000000
vn 0.000000 -0.000000 -1.000000
vn 0.000000 -0.000000 -1.000000
vn 0.000000 -0.000000 -1.000000
vn 0.000000 -0.000000 -1.000000
vn 0.000000 -0.000000 -1.000000
vn 0.000000 -0.000000 -1.000000
vn 0.000000 -0.000000 -1.000000
vn 0.000000 -0.000000 -1.000000
vn 0.000000 -0.000000 -1.000000
vn 0.000000 -0.000000 -1.000000
vn 0.000000 -0.000000 -1.000000
vn 0.000000 -0.000000 -1.000000
vn 0.000000 -0.000000 -1.000000
vn 0.000000 0.000000 1.000000
vn 0.000000 0.000000 1.000000
vn 0.000000 0.000000 1.000000
vn 0.000000 0.000000 1.000000
vn 0.000000 0.000000 1.000000
vn 0.000000 0.000000 1.000000
vn 0.000000 0.000000 1.000000
vn 0.000000 0.000000 1.000000
vn 0.000000 0.000000 1.000000
vn 0.000000 0.000000 1.000000
vn 0.000000 0.000000 1.000000
vn 0.000000 0.000000 1.000000
vn 0.000000 0.000000 1.000000
vn 0.000000 0.000000 1.000000
vn 0.000000 0.000000 1.000000
vn 0.000000 0.000000 1.000000
vn 0.000000 0.000000 1.000000
s 1
g pCylinder2
usemtl initialShadingGroup
f 1/17/1 2/18/2 18/35/3 17/34/4
f 2/18/2 3/19/5 19/36/6 18/35/3
f 3/19/5 4/20/7 20/37/8 19/36/6
f 4/20/7 5/21/9 21/38/10 20/37/8
f 5/21/9 6/22/11 22/39/12 21/38/10
f 6/22/11 7/23/13 23/40/14 22/39/12
f 7/23/13 8/24/15 24/41/16 23/40/14
f 8/24/15 9/25/17 25/42/18 24/41/16
f 9/25/17 10/26/19 26/43/20 25/42/18
f 10/26/19 11/27/21 27/44/22 26/43/20
f 11/27/21 12/28/23 28/45/24 27/44/22
f 12/28/23 13/29/25 29/46/26 28/45/24
f 13/29/25 14/30/27 30/47/28 29/46/26
f 14/30/27 15/31/29 31/48/30 30/47/28
f 15/31/29 16/32/31 32/49/32 31/48/30
f 16/32/31 1/33/1 17/50/4 32/49/32
f 17/34/4 18/35/3 34/52/33 33/51/34
f 18/35/3 19/36/6 35/53/35 34/52/33
f 19/36/6 20/37/8 36/54/36 35/53/35
f 20/37/8 21/38/10 37/55/37 36/54/36
f 21/38/10 22/39/12 38/56/38 37/55/37
f 22/39/12 23/40/14 39/57/39 38/56/38
f 23/40/14 24/41/16 40/58/40 39/57/39
f 24/41/16 25/42/18 41/59/41 40/58/40
f 25/42/18 26/43/20 42/60/42 41/59/41
f 26/43/20 27/44/22 43/61/43 42/60/42
f 27/44/22 28/45/24 44/62/44 43/61/43
f 28/45/24 29/46/26 45/63/45 44/62/44
f 29/46/26 30/47/28 46/64/46 45/63/45
f 30/47/28 31/48/30 47/65/47 46/64/46
f 31/48/30 32/49/32 48/66/48 47/65/47
f 32/49/32 17/50/4 33/67/34 48/66/48
f 33/51/34 34/52/33 50/69/49 49/68/50
f 34/52/33 35/53/35 51/70/51 50/69/49
f 35/53/35 36/54/36 52/71/52 51/70/51
f 36/54/36 37/55/37 53/72/53 52/71/52
f 37/55/37 38/56/38 54/73/54 53/72/53
f 38/56/38 39/57/39 55/74/55 54/73/54
f 39/57/39 40/58/40 56/75/56 55/74/55
f 40/58/40 41/59/41 57/76/57 56/75/56
f 41/59/41 42/60/42 58/77/58 57/76/57
f 42/60/42 43/61/43 59/78/59 58/77/58
f 43/61/43 44/62/44 60/79/60 59/78/59
f 44/62/44 45/63/45 61/80/61 60/79/60
f 45/63/45 46/64/46 62/81/62 61/80/61
f 46/64/46 47/65/47 63/82/63 62/81/62
f 47/65/47 48/66/48 64/83/64 63/82/63
f 48/66/48 33/67/34 49/84/50 64/83/64
f 49/68/50 50/69/49 66/86/65 65/85/66
f 50/69/49 51/70/51 67/87/67 66/86/65
f 51/70/51 52/71/52 68/88/68 67/87/67
f 52/71/52 53/72/53 69/89/69 68/88/68
f 53/72/53 54/73/54 70/90/70 69/89/69
f 54/73/54 55/74/55 71/91/71 70/90/70
f 55/74/55 56/75/56 72/92/72 71/91/71
f 56/75/56 57/76/57 73/93/73 72/92/72
f 57/76/57 58/77/58 74/94/74 73/93/73
f 58/77/58 59/78/59 75/95/75 74/94/74
f 59/78/59 60/79/60 76/96/76 75/95/75
f 60/79/60 61/80/61 77/97/77 76/96/76
f 61/80/61 62/81/62 78/98/78 77/97/77
f 62/81/62 63/82/63 79/99/79 78/98/78
f 63/82/63 64/83/64 80/100/80 79/99/79
f 64/83/64 49/84/50 65/101/66 80/100/80
s 2
f 2/2/81 1/1/82 81/118/83
f 3/3/84 2/2/81 81/118/83
f 4/4/85 3/3/84 81/118/83
f 5/5/86 4/4/85 81/118/83
f 6/6/87 5/5/86 81/118/83
f 7/7/88 6/6/87 81/118/83
f 8/8/89 7/7/88 81/118/83
f 9/9/90 8/8/89 81/118/83
f 10/10/91 9/9/90 81/118/83
f 11/11/92 10/10/91 81/118/83
f 12/12/93 11/11/92 81/118/83
f 13/13/94 12/12/93 81/118/83
f 14/14/95 13/13/94 81/118/83
f 15/15/96 14/14/95 81/118/83
f 16/16/97 15/15/96 81/118/83
f 1/1/82 16/16/97 81/118/83
s 3
f 65/116/98 66/115/99 82/119/100
f 66/115/99 67/114/101 82/119/100
f 67/114/101 68/113/102 82/119/100
f 68/113/102 69/112/103 82/119/100
f 69/112/103 70/111/104 82/119/100
f 70/111/104 71/110/105 82/119/100
f 71/110/105 72/109/106 82/119/100
f 72/109/106 73/108/107 82/119/100
f 73/108/107 74/107/108 82/119/100
f 74/107/108 75/106/109 82/119/100
f 75/106/109 76/105/110 82/119/100
f 76/105/110 77/104/111 82/119/100
f 77/104/111 78/103/112 82/119/100
f 78/103/112 79/102/113 82/119/100
f 79/102/113 80/117/114 82/119/100
f 80/117/114 65/116/98 82/119/100
